<svg xmlns="http://www.w3.org/2000/svg" version="1.1" xmlns:xlink="http://www.w3.org/1999/xlink" xmlns:svgjs="http://svgjs.com/svgjs" width="512" height="512" x="0" y="0" viewBox="0 0 48 48" style="enable-background:new 0 0 512 512" xml:space="preserve" class=""><g><g xmlns="http://www.w3.org/2000/svg" id="Cloud_Computing" data-name="Cloud Computing"><path d="m37 34a2.9951 2.9951 0 0 0 -2.8157 2h-2.1843v-5h-2v6a.9994.9994 0 0 0 1 1h3.1843a2.9947 2.9947 0 1 0 2.8157-4z" fill="#000000" data-original="#000000" class=""></path><path d="m25 41.1843v-10.1843h-2v10.1843a3 3 0 1 0 2 0z" fill="#000000" data-original="#000000" class=""></path><path d="m36.1191 8.0068a13.9887 13.9887 0 0 0 -25.5361 3.0147q-.2974-.0215-.583-.0215a9 9 0 0 0 0 18h27a.9606.9606 0 0 0 .2764-.041 10.4938 10.4938 0 0 0 -1.1573-20.9522z" fill="#000000" data-original="#000000" class=""></path><path d="m16 36h-2.1843a3 3 0 1 0 0 2h3.1843a.9994.9994 0 0 0 1-1v-6h-2z" fill="#000000" data-original="#000000" class=""></path></g></g></svg>
